<svg width="20" height="21" viewBox="0 0 20 21" fill="none" xmlns="http://www.w3.org/2000/svg">
<g clip-path="url(#clip0_4_108)">
<path d="M7.5 16.3333C3.33333 17.5833 3.33333 14.25 1.66667 13.8333M13.3333 18.8333V15.6083C13.3646 15.211 13.3109 14.8115 13.1758 14.4365C13.0408 14.0615 12.8274 13.7195 12.55 13.4333C15.1667 13.1417 17.9167 12.15 17.9167 7.6C17.9165 6.43652 17.4689 5.31766 16.6667 4.475C17.0465 3.45709 17.0197 2.33196 16.5917 1.33333C16.5917 1.33333 15.6083 1.04167 13.3333 2.56667C11.4233 2.04902 9.40999 2.04902 7.5 2.56667C5.225 1.04167 4.24167 1.33333 4.24167 1.33333C3.81365 2.33196 3.78679 3.45709 4.16667 4.475C3.35844 5.32392 2.91044 6.45288 2.91667 7.625C2.91667 12.1417 5.66667 13.1333 8.28333 13.4583C8.00917 13.7416 7.79772 14.0795 7.66276 14.4499C7.5278 14.8204 7.47234 15.2151 7.5 15.6083V18.8333" stroke="#1E1E24" stroke-width="2" stroke-linecap="round" stroke-linejoin="round"/>
</g>
<defs>
<clipPath id="clip0_4_108">
<rect width="20" height="20" fill="white" transform="translate(0 0.5)"/>
</clipPath>
</defs>
</svg>
