<svg width="20" height="21" viewBox="0 0 20 21" fill="none" xmlns="http://www.w3.org/2000/svg">
<path d="M13.3333 7.16666C14.6594 7.16666 15.9312 7.69345 16.8689 8.63113C17.8065 9.56881 18.3333 10.8406 18.3333 12.1667V18H15V12.1667C15 11.7246 14.8244 11.3007 14.5118 10.9882C14.1993 10.6756 13.7754 10.5 13.3333 10.5C12.8913 10.5 12.4674 10.6756 12.1548 10.9882C11.8423 11.3007 11.6667 11.7246 11.6667 12.1667V18H8.33333V12.1667C8.33333 10.8406 8.86012 9.56881 9.7978 8.63113C10.7355 7.69345 12.0072 7.16666 13.3333 7.16666Z" stroke="#1E1E24" stroke-width="2" stroke-linecap="round" stroke-linejoin="round"/>
<path d="M5 8H1.66667V18H5V8Z" stroke="#1E1E24" stroke-width="2" stroke-linecap="round" stroke-linejoin="round"/>
<path d="M3.33333 5.5C4.25381 5.5 5 4.75381 5 3.83333C5 2.91286 4.25381 2.16666 3.33333 2.16666C2.41286 2.16666 1.66667 2.91286 1.66667 3.83333C1.66667 4.75381 2.41286 5.5 3.33333 5.5Z" stroke="#1E1E24" stroke-width="2" stroke-linecap="round" stroke-linejoin="round"/>
</svg>
