<svg width="40" height="41" viewBox="0 0 40 41" fill="none" xmlns="http://www.w3.org/2000/svg">
<path d="M35 21.9041C34.7378 24.7411 33.6731 27.4447 31.9304 29.6987C30.1877 31.9527 27.8392 33.6637 25.1595 34.6316C22.4799 35.5995 19.58 35.7843 16.7992 35.1642C14.0184 34.5442 11.4717 33.145 9.45704 31.1304C7.44243 29.1157 6.04323 26.569 5.42318 23.7882C4.80313 21.0074 4.98786 18.1075 5.95577 15.4279C6.92367 12.7483 8.63472 10.3997 10.8887 8.65699C13.1427 6.9143 15.8463 5.84958 18.6833 5.5874C17.0224 7.83451 16.2231 10.6032 16.4309 13.3898C16.6387 16.1764 17.8398 18.7958 19.8157 20.7717C21.7916 22.7476 24.411 23.9487 27.1976 24.1565C29.9843 24.3643 32.7529 23.565 35 21.9041V21.9041Z" stroke="#222222" stroke-width="2" stroke-linecap="round" stroke-linejoin="round"/>
</svg>
