<svg width="56" height="56" viewBox="0 0 56 56" fill="none" xmlns="http://www.w3.org/2000/svg">
<path d="M23.3333 4.66666H32.6667C33.9044 4.66666 35.0913 5.15832 35.9665 6.03349C36.8417 6.90866 37.3333 8.09565 37.3333 9.33332V14H46.6667C47.9044 14 49.0913 14.4917 49.9665 15.3668C50.8417 16.242 51.3333 17.429 51.3333 18.6667V44.3333C51.3333 45.571 50.8417 46.758 49.9665 47.6332C49.0913 48.5083 47.9044 49 46.6667 49H9.33334C6.74334 49 4.66667 46.9 4.66667 44.3333V18.6667C4.66667 16.0767 6.74334 14 9.33334 14H18.6667V9.33332C18.6667 6.74332 20.7433 4.66666 23.3333 4.66666ZM32.6667 14V9.33332H23.3333V14H32.6667Z" fill="url(#paint0_linear)"/>
<defs>
<linearGradient id="paint0_linear" x1="28" y1="4.66666" x2="28" y2="49" gradientUnits="userSpaceOnUse">
<stop stop-color="#007CF0"/>
<stop offset="1" stop-color="#007CF0" stop-opacity="0"/>
<stop offset="1" stop-color="#003A70"/>
</linearGradient>
</defs>
</svg>
