<svg width="42" height="52" viewBox="0 0 42 52" fill="none" xmlns="http://www.w3.org/2000/svg">
<path d="M11.6554 11.6101V23.5944C11.6554 23.5944 30.7416 24.1123 34.2925 23.5944C37.8434 23.0766 40.0628 20.6353 40.0628 17.5283C40.0628 14.4212 37.4736 11.82 34.2925 11.6101C31.1115 11.4002 11.6554 11.6101 11.6554 11.6101Z" stroke="white" stroke-width="2"/>
<path d="M1.07398 4.4316C1.07398 5.54127 1 44.3795 1 46.8207C1 49.262 2.53452 50.6408 4.47695 50.8895C6.41937 51.1381 8.17582 50.8895 8.17582 50.8895V1.02863C8.17582 1.02863 5.73456 0.96421 4.47695 1.02863C3.21933 1.09305 2.55353 1.54647 2.05545 2.1383C1.55737 2.73012 1.07398 3.32193 1.07398 4.4316Z" stroke="white" stroke-width="2"/>
<path d="M11.6554 8.13047V1.02863H34.5884C35.5675 1.09605 36.0608 1.34035 36.8817 1.99033C37.5756 2.77909 37.9174 3.32193 37.9914 4.28364C38.0654 5.24535 37.9914 8.13047 37.9914 8.13047H11.6554Z" stroke="white" stroke-width="2"/>
<path d="M11.6554 34.1758V27.0739H37.9914C37.9914 27.0739 38.0489 28.8088 37.9914 30.7728C37.9339 32.7368 36.7009 33.826 34.5884 34.1758C32.4759 34.5256 11.6554 34.1758 11.6554 34.1758Z" stroke="white" stroke-width="2"/>
</svg>
