<svg width="40" height="52" viewBox="0 0 40 52" fill="none" xmlns="http://www.w3.org/2000/svg">
<path d="M10.6554 10.6101V22.5944C10.6554 22.5944 29.7416 23.1123 33.2925 22.5944C36.8434 22.0766 39.0628 19.6353 39.0628 16.5283C39.0628 13.4212 36.4736 10.82 33.2925 10.6101C30.1115 10.4002 10.6554 10.6101 10.6554 10.6101Z" stroke="white"/>
<path d="M1.07398 4.4316C1.07398 5.54127 1 44.3795 1 46.8207C1 49.262 2.53452 50.6408 4.47695 50.8895C6.41937 51.1381 8.17582 50.8895 8.17582 50.8895V1.02863C8.17582 1.02863 5.73456 0.96421 4.47695 1.02863C3.21933 1.09305 2.55353 1.54647 2.05545 2.1383C1.55737 2.73012 1.07398 3.32193 1.07398 4.4316Z" stroke="white"/>
<path d="M10.6554 8.13047V1.02863H33.5884C34.5675 1.09605 35.0608 1.34035 35.8817 1.99033C36.5756 2.77909 36.9174 3.32193 36.9914 4.28364C37.0654 5.24535 36.9914 8.13047 36.9914 8.13047H10.6554Z" stroke="white"/>
<path d="M10.6554 32.1758V25.0739H36.9914C36.9914 25.0739 37.0489 26.8088 36.9914 28.7728C36.9339 30.7368 35.7009 31.826 33.5884 32.1758C31.4759 32.5256 10.6554 32.1758 10.6554 32.1758Z" stroke="white"/>
</svg>
