<svg width="250" height="337" viewBox="0 0 250 337" fill="none" xmlns="http://www.w3.org/2000/svg">
  <path d="M0 24C0 10.7452 10.7452 0 24 0H48V337H24C10.7452 337 0 326.255 0 313V24Z" fill="url(#paint0_linear)" />
  <path d="M58 0H212C225.255 0 236 10.7452 236 24V48H58V0Z" fill="url(#paint1_linear)" />
  <path d="M58 149H236V173C236 186.255 225.255 197 212 197H58V149Z" fill="url(#paint2_linear)" />
  <path d="M58 58H209.5C231.868 58 250 76.1325 250 98.5C250 120.868 231.868 139 209.5 139H58V58Z"
    fill="url(#paint3_linear)" />
  <defs>
    <linearGradient id="paint0_linear" x1="24" y1="0" x2="24" y2="337" gradientUnits="userSpaceOnUse">
      <stop stop-color="#007CF0" />
      <stop offset="1" stop-color="#003A70" />
    </linearGradient>
    <linearGradient id="paint1_linear" x1="147" y1="0" x2="147" y2="48" gradientUnits="userSpaceOnUse">
      <stop stop-color="#007CF0" />
      <stop offset="1" stop-color="#003A70" />
    </linearGradient>
    <linearGradient id="paint2_linear" x1="147" y1="149" x2="147" y2="197" gradientUnits="userSpaceOnUse">
      <stop stop-color="#007CF0" />
      <stop offset="1" stop-color="#003A70" />
    </linearGradient>
    <linearGradient id="paint3_linear" x1="154" y1="58" x2="154" y2="139" gradientUnits="userSpaceOnUse">
      <stop stop-color="#003B5B" />
      <stop offset="1" stop-color="#001427" />
    </linearGradient>
  </defs>
</svg>