<svg width="24" height="24" viewBox="0 0 24 24" fill="none" xmlns="http://www.w3.org/2000/svg">
<path d="M20 7H4C2.89543 7 2 7.89543 2 9V19C2 20.1046 2.89543 21 4 21H20C21.1046 21 22 20.1046 22 19V9C22 7.89543 21.1046 7 20 7Z" stroke="white" stroke-linecap="round" stroke-linejoin="round"/>
<path d="M15 7V3.44444C15 3.32657 14.842 3.21352 14.5607 3.13017C14.2794 3.04683 13.8978 3 13.5 3H10.5C10.1022 3 9.72064 3.04683 9.43934 3.13017C9.15804 3.21352 9 3.32657 9 3.44444V7" stroke="white" stroke-linecap="round" stroke-linejoin="round"/>
</svg>
